<svg xmlns="http://www.w3.org/2000/svg" xmlns:svg="http://www.w3.org/2000/svg" xmlns:xlink="http://www.w3.org/1999/xlink" id="svg2" width="249.519" height="64.009" version="1.1"><defs id="defs4"><filter id="filter2995" color-interpolation-filters="sRGB"><feColorMatrix id="feColorMatrix2997" result="fbSourceGraphic" values="1 0 0 0 0 0 1 0 0 0 0 0 1 0 0 0 0 0 1 0"/><feGaussianBlur id="feGaussianBlur2999" result="result1" stdDeviation="3"/><feOffset id="feOffset3001" dx="2" dy="2" result="result6"/><feComposite id="feComposite3003" in="result6" in2="result1" operator="in" result="result2"/><feColorMatrix id="feColorMatrix3005" result="result3" type="hueRotate" values="110"/><feBlend id="feBlend3007" in="result2" in2="result3" mode="screen" result="result4"/><feConvolveMatrix id="feConvolveMatrix3009" bias="0" divisor="2" in="result4" kernelMatrix="-2 0 2 0 4 0 2 0 2" order="3 3" result="result5" targetX="0"/><feComposite id="feComposite3011" in="result2" in2="result5" operator="atop"/></filter><filter id="filter3073" color-interpolation-filters="sRGB"><feGaussianBlur id="feGaussianBlur3075" in="SourceAlpha" result="result1" stdDeviation="3"/><feComposite id="feComposite3077" in2="result1" k1="-1" k2="3.2" k3="0" k4="-2" operator="arithmetic" result="result3"/><feColorMatrix id="feColorMatrix3079" result="result2" values="0 0 0 0 0 0 1 0 0 0 0 0 1 0 0 0 0 0 10 0"/><feComposite id="feComposite3081" in="SourceGraphic" in2="result2" operator="out" result="fbSourceGraphic"/><feGaussianBlur id="feGaussianBlur3083" in="fbSourceGraphic" result="result4" stdDeviation=".5"/><feComposite id="feComposite3085" in="result4" in2="result4" operator="xor" result="result5"/><feBlend id="feBlend3087" in="result5" in2="result5" mode="darken" result="result6"/><feBlend id="feBlend3089" in="result6" in2="result6" mode="darken"/></filter><linearGradient id="linearGradient4088" x1="16.364" x2="16.364" y1="39.919" y2="30.928" gradientTransform="translate(11.616,0)" gradientUnits="userSpaceOnUse" xlink:href="#linearGradient5060"/><linearGradient id="linearGradient4086" x1="16.364" x2="16.364" y1="39.919" y2="30.928" gradientTransform="translate(9.6162,0)" gradientUnits="userSpaceOnUse" xlink:href="#linearGradient5060"/><linearGradient id="linearGradient4084" x1="16.364" x2="16.364" y1="39.919" y2="30.928" gradientTransform="translate(7.6162,0)" gradientUnits="userSpaceOnUse" xlink:href="#linearGradient5060"/><linearGradient id="linearGradient4082" x1="16.364" x2="16.364" y1="39.919" y2="30.928" gradientTransform="translate(5.6162,0)" gradientUnits="userSpaceOnUse" xlink:href="#linearGradient5060"/><linearGradient id="linearGradient4080" x1="16.364" x2="16.364" y1="39.919" y2="30.928" gradientTransform="translate(3.6162,0)" gradientUnits="userSpaceOnUse" xlink:href="#linearGradient5060"/><linearGradient id="linearGradient4078" x1="16.364" x2="16.364" y1="39.919" y2="30.928" gradientTransform="translate(1.6162,0)" gradientUnits="userSpaceOnUse" xlink:href="#linearGradient5060"/><linearGradient id="linearGradient4076" x1="16.364" x2="16.364" y1="39.919" y2="30.928" gradientTransform="translate(12.707,0)" gradientUnits="userSpaceOnUse" xlink:href="#linearGradient4449"/><linearGradient id="linearGradient4074" x1="16.364" x2="16.364" y1="39.919" y2="30.928" gradientTransform="translate(10.707,0)" gradientUnits="userSpaceOnUse" xlink:href="#linearGradient4449"/><linearGradient id="linearGradient4072" x1="16.364" x2="16.364" y1="39.919" y2="30.928" gradientTransform="translate(8.7071,0)" gradientUnits="userSpaceOnUse" xlink:href="#linearGradient4449"/><linearGradient id="linearGradient4070" x1="16.364" x2="16.364" y1="39.919" y2="30.928" gradientTransform="translate(6.7071,0)" gradientUnits="userSpaceOnUse" xlink:href="#linearGradient4449"/><linearGradient id="linearGradient4068" x1="16.364" x2="16.364" y1="39.919" y2="30.928" gradientTransform="translate(4.7071,0)" gradientUnits="userSpaceOnUse" xlink:href="#linearGradient4449"/><linearGradient id="linearGradient4066" x1="16.364" x2="16.364" y1="39.919" y2="30.928" gradientTransform="translate(2.7071,0)" gradientUnits="userSpaceOnUse" xlink:href="#linearGradient4449"/><linearGradient id="linearGradient4062" x1="27.325" x2="22.312" y1="26.888" y2="26.787" gradientTransform="matrix(0.95593,0,0,1,0.86991,0)" gradientUnits="userSpaceOnUse"><stop id="stop4422" offset="0" stop-color="#fff"/><stop id="stop4424" offset="1" stop-color="#fff" stop-opacity="0"/></linearGradient><linearGradient id="linearGradient4060" x1="24.35" x2="23.234" y1="34.464" y2="10.018" gradientTransform="translate(-5.0886001e-7,0.40406)" gradientUnits="userSpaceOnUse"><stop id="stop4388" offset="0" stop-color="#d2d2d2"/><stop id="stop4390" offset="1" stop-color="#dfdfdf"/></linearGradient><linearGradient id="linearGradient5403" x1="1.642" x2="15.343" y1="117.83" y2="117.83" gradientTransform="matrix(2.7402,0,0,0.14768,31.378,14.833)" gradientUnits="userSpaceOnUse"><stop id="stop179" offset="0" stop-color="#fff" stop-opacity="0"/><stop id="stop180" offset=".108" stop-color="#fff" stop-opacity=".707"/><stop id="stop181" offset=".921" stop-color="#fff" stop-opacity=".707"/><stop id="stop182" offset="1" stop-color="#fff" stop-opacity="0"/></linearGradient><linearGradient id="linearGradient5401" x1=".612" x2="5.086" y1="372.58" y2="372.58" gradientTransform="matrix(8.1686,0,0,0.22862,31.378,-46.267)" gradientUnits="userSpaceOnUse" xlink:href="#linearGradient272"/><linearGradient id="linearGradient5399" x1=".612" x2="5.086" y1="372.58" y2="372.58" gradientTransform="matrix(8.1686,0,0,0.22121,31.378,-48.274)" gradientUnits="userSpaceOnUse" xlink:href="#linearGradient272"/><linearGradient id="linearGradient5397" x1="1.642" x2="15.343" y1="117.83" y2="117.83" gradientTransform="matrix(2.7402,0,0,0.36494,31.378,-10.353)" gradientUnits="userSpaceOnUse"><stop id="stop159" offset="0" stop-color="#686868" stop-opacity="0"/><stop id="stop162" offset=".238" stop-color="#686868"/><stop id="stop163" offset=".781" stop-color="#686868"/><stop id="stop160" offset="1" stop-color="#686868" stop-opacity="0"/></linearGradient><linearGradient id="linearGradient4449"><stop id="stop4451" offset="0" stop-color="#fff"/><stop id="stop4453" offset="1" stop-color="#fff" stop-opacity="0"/></linearGradient><linearGradient id="linearGradient272"><stop id="stop273" offset="0" stop-color="#474747" stop-opacity="0"/><stop id="stop275" offset=".1" stop-color="#474747"/><stop id="stop276" offset=".9" stop-color="#474747"/><stop id="stop274" offset="1" stop-color="#474747" stop-opacity="0"/></linearGradient><linearGradient id="linearGradient6715" x1="302.86" x2="302.86" y1="366.65" y2="609.51" gradientTransform="matrix(2.7744,0,0,1.9697,-1892.2,-872.89)" gradientUnits="userSpaceOnUse"><stop id="stop5050" offset="0" stop-opacity="0"/><stop id="stop5056" offset=".5"/><stop id="stop5052" offset="1" stop-opacity="0"/></linearGradient><radialGradient id="radialGradient6717" cx="605.71" cy="486.65" r="117.14" gradientTransform="matrix(2.7744,0,0,1.9697,-1891.6,-872.89)" gradientUnits="userSpaceOnUse" xlink:href="#linearGradient5060"/><linearGradient id="linearGradient5060"><stop id="stop5062" offset="0"/><stop id="stop5064" offset="1" stop-opacity="0"/></linearGradient><radialGradient id="radialGradient6719" cx="605.71" cy="486.65" r="117.14" gradientTransform="matrix(-2.7744,0,0,1.9697,112.76,-872.89)" gradientUnits="userSpaceOnUse" xlink:href="#linearGradient5060"/><linearGradient id="linearGradient30344" x1="99.777" x2="153" y1="15.424" y2="248.63" gradientTransform="matrix(0.37857,0,0,0.37857,603.32,239.36)" gradientUnits="userSpaceOnUse"><stop id="stop53300-0" offset="0" stop-color="#184375"/><stop id="stop53302-8" offset="1" stop-color="#C8BDDC"/></linearGradient><radialGradient id="radialGradient30342" cx="14.288" cy="68.873" r="11.69" fy="72.568" gradientTransform="matrix(1.3993,-2.2344e-7,8.1962e-8,0.51326,4.3651,4.8393)" gradientUnits="userSpaceOnUse"><stop id="stop2302" offset="0" stop-opacity=".327"/><stop id="stop2304" offset="1" stop-opacity="0"/></radialGradient><linearGradient id="linearGradient3824" x1="113.99" x2="139.04" y1="179.86" y2="-20.49" gradientTransform="translate(251.09,444.85)" gradientUnits="userSpaceOnUse"><stop id="stop3361" offset="0"/><stop id="stop3363" offset="1" stop-opacity="0"/></linearGradient><linearGradient id="linearGradient3819" x1="33.719" x2="-142.66" y1="366.3" y2="-72.052" gradientTransform="translate(251.02,443.59)" gradientUnits="userSpaceOnUse"><stop id="stop3223" offset="0"/><stop id="stop3469" offset=".5" stop-color="#787878"/><stop id="stop3225" offset="1" stop-opacity="0"/></linearGradient><radialGradient id="radialGradient3816" cx="117.05" cy="254.16" r="2.27" gradientTransform="matrix(1.0553,0,0,57.423,243.68,-13894)" gradientUnits="userSpaceOnUse"><stop id="stop3231" offset="0"/><stop id="stop3237" offset=".5" stop-opacity=".498"/><stop id="stop3233" offset="1" stop-opacity="0"/></radialGradient><linearGradient id="linearGradient3813" x1="311.26" x2="356.65" y1="234.67" y2="211.97" gradientTransform="translate(59.171,448.26)" gradientUnits="userSpaceOnUse" xlink:href="#linearGradient2423"/><linearGradient id="linearGradient3810" x1="311.26" x2="356.65" y1="234.67" y2="211.97" gradientTransform="translate(58.466,448.92)" gradientUnits="userSpaceOnUse" xlink:href="#linearGradient2423"/><linearGradient id="linearGradient3807" x1="354.7" x2="300.23" y1="106.1" y2="146.48" gradientTransform="translate(59.171,447.94)" gradientUnits="userSpaceOnUse" xlink:href="#linearGradient2423"/><linearGradient id="linearGradient3804" x1="354.7" x2="300.23" y1="106.1" y2="146.48" gradientTransform="translate(60.851,447.03)" gradientUnits="userSpaceOnUse" xlink:href="#linearGradient2423"/><radialGradient id="radialGradient3801" cx="117.01" cy="244.67" r="2.753" gradientTransform="matrix(7.1332,1.8819e-5,-3.5367e-5,13.404,-466.8,-2581.6)" gradientUnits="userSpaceOnUse"><stop id="stop3337" offset="0" stop-color="#58ff58"/><stop id="stop3339" offset="1"/></radialGradient><radialGradient id="radialGradient3798" cx="108.83" cy="244.47" r="4.818" gradientTransform="matrix(13.93,-0.5153,0.62027,10.417,-1347.2,-1792.4)" gradientUnits="userSpaceOnUse"><stop id="stop3241" offset="0" stop-color="#00fd00"/><stop id="stop3243" offset="1"/></radialGradient><linearGradient id="linearGradient3795" x1="157.68" x2="156.1" y1="425.95" y2="386.66" gradientTransform="translate(218.06,423.37)" gradientUnits="userSpaceOnUse"><stop id="stop3381" offset="0" stop-color="#c7c7c7"/><stop id="stop3383" offset="1" stop-opacity="0"/></linearGradient><filter id="filter3693" width="1.147" height="1.663" x="-.073" y="-.331" color-interpolation-filters="sRGB"><feGaussianBlur id="feGaussianBlur3695" stdDeviation="6.449"/></filter><filter id="filter3671" width="2.389" height="2.307" x="-.694" y="-.654" color-interpolation-filters="sRGB"><feGaussianBlur id="feGaussianBlur3673" stdDeviation=".244"/></filter><filter id="filter3587" width="2.966" height="3.026" x="-.983" y="-1.013" color-interpolation-filters="sRGB"><feGaussianBlur id="feGaussianBlur3589" stdDeviation=".811"/></filter><linearGradient id="linearGradient2423"><stop id="stop2425" offset="0"/><stop id="stop2427" offset="1" stop-opacity="0"/></linearGradient></defs><metadata id="metadata7"/><g id="layer1" transform="translate(139.68587,-7.59375)"><flowRoot id="flowRoot3091" fill="#000" fill-opacity="1" stroke="none" font-family="Death Devil" font-size="64" font-stretch="normal" font-style="normal" font-variant="normal" font-weight="normal" letter-spacing="0" word-spacing="0" xml:space="preserve" style="line-height:125%;-inkscape-font-specification:Death Devil"><flowRegion id="flowRegion3093"><rect id="rect3095" width="695.49" height="123.744" x="38.891" y="110.9"/></flowRegion><flowPara id="flowPara3097"/></flowRoot><path id="path6011" fill="#000" fill-opacity="1" stroke="#000" stroke-dasharray="none" stroke-dashoffset="0" stroke-linecap="round" stroke-miterlimit="4" stroke-opacity="1" stroke-width="2" d="m -46.206136,48.227581 c -4.77736,0 -8.65017,-3.531079 -8.65017,-7.886879 0,-4.355806 3.87281,-7.88688 8.65017,-7.88688 4.77735,0 8.650154,3.531074 8.650154,7.88688 0,4.3558 -3.872804,7.886879 -8.650154,7.886879 z"/><path id="path6007" fill="#000" fill-opacity="1" stroke="#000" stroke-dasharray="none" stroke-linecap="butt" stroke-linejoin="miter" stroke-miterlimit="4" stroke-opacity="1" stroke-width="2" d="m -46.13042,70.773991 0,-63.166484"/><g font-stretch="normal" style="line-height:125%;-inkscape-font-specification:Nexa" id="text7037" fill="#000" fill-opacity="1" stroke="none" font-family="Nexa" font-size="64" font-style="normal" font-variant="normal" font-weight="normal" letter-spacing="0" word-spacing="0"><path id="path7140" d="m -139.68587,22.360695 0,28 4.88,0 0,-10.08 c 0,-2.959997 2,-5.4 4.88,-5.4 2.59999,0 4.48,1.520003 4.48,5.12 l 0,10.36 4.88,0 0,-10.4 c 0,-5.799994 -2.48001,-9.6 -8.08,-9.6 -2.24,0 -4.40001,0.680002 -6.16,2.96 l 0,-10.96 -4.88,0" font-family="Nexa Bold" font-size="40" style="-inkscape-font-specification:Nexa Bold"/><path id="path7142" d="m -114.48275,25.600695 0,5.08 -3.68,0 0,4.2 3.68,0 0,8.52 c 0,4.919995 2.80001,7.36 7.08,7.2 1.48,-0.04 2.64,-0.280001 4.04,-0.84 l -1.36,-4.16 c -0.72,0.36 -1.6,0.6 -2.36,0.6 -1.52,0 -2.56,-0.920002 -2.56,-2.8 l 0,-8.52 5.48,0 0,-4.2 -5.44,0 0,-5.6 -4.88,0.52" font-family="Nexa Bold" font-size="40" style="-inkscape-font-specification:Nexa Bold"/><path id="path7144" d="m -98.545248,25.600695 0,5.08 -3.680002,0 0,4.2 3.680002,0 0,8.52 c 0,4.919995 2.800004,7.36 7.08,7.2 1.479998,-0.04 2.640001,-0.280001 4.04,-0.84 l -1.36,-4.16 c -0.72,0.36 -1.600001,0.6 -2.36,0.6 -1.519999,0 -2.56,-0.920002 -2.56,-2.8 l 0,-8.52 5.48,0 0,-4.2 -5.44,0 0,-5.6 -4.88,0.52" font-family="Nexa Bold" font-size="40" style="-inkscape-font-specification:Nexa Bold"/><path id="path7146" d="m -73.687748,46.120695 c -3.319997,0 -5.6,-2.520003 -5.6,-5.6 0,-3.079997 2.080003,-5.6 5.6,-5.6 3.519996,0 5.6,2.520003 5.6,5.6 0,3.079997 -2.280004,5.6 -5.6,5.6 m -6.04,12.48 0,-10.56 c 1.399998,2.159998 4.480002,2.8 6.56,2.8 6.319993,0 9.96,-4.560006 9.96,-10.32 0,-5.799994 -4.040006,-10.32 -10.12,-10.32 -2.239998,0 -4.880002,0.960002 -6.4,3.16 l -0.32,-2.72 -4.56,0 0,27.96 4.88,0" font-family="Nexa Bold" font-size="40" style="-inkscape-font-specification:Nexa Bold"/></g><g font-stretch="normal" style="line-height:125%;-inkscape-font-specification:Nexa" id="text7043" fill="#000" fill-opacity="1" stroke="none" font-family="Nexa" font-size="64" font-style="normal" font-variant="normal" font-weight="normal" letter-spacing="0" word-spacing="0"><path id="path7127" d="m 7.8057608,50.788521 0,-11.84 c 0,-4.919995 -3.4400048,-8.32 -8.28,-8.32 -3.039997,0 -6.1200012,1.640003 -7.32,4.88 -1.1599988,-3.519997 -4.3200028,-4.88 -7.3199998,-4.88 -2.559998,0 -5.080002,1.080002 -6.44,3.68 l -0.04,-3.28 -1.84,0 0,19.76 1.96,0 0,-11.72 c 0,-3.799996 2.560004,-6.56 6.32,-6.56 3.759996,0 6.3599998,2.760004 6.3599998,6.56 l 0,11.72 1.96,0 0,-11.72 c 0,-3.799996 2.6000038,-6.6 6.36,-6.6 3.7599962,0 6.32,2.680004 6.32,6.48 l 0,11.84 1.96,0" font-family="Nexa Light" font-size="40" style="-inkscape-font-specification:Nexa Light"/><path id="path7129" d="m 30.402636,31.028521 0,4.32 c -1.639999,-3.079997 -4.880003,-4.56 -8.08,-4.56 -5.519995,0 -10.04,4.080006 -10.04,10.12 0,6.039994 4.520005,10.2 10.04,10.2 3.199997,0 6.160002,-1.440003 8.08,-4.52 l 0,4.2 1.96,0 c 0,-6.599994 0,-13.160007 0,-19.76 l -1.96,0 m -8.08,1.64 c 10.999989,0 10.999989,16.52 0,16.52 -4.479996,0 -8.08,-3.320005 -8.08,-8.28 0,-4.959995 3.600004,-8.24 8.08,-8.24" font-family="Nexa Light" font-size="40" style="-inkscape-font-specification:Nexa Light"/><path id="path7131" d="m 52.419511,33.348521 c -1.959998,-1.839998 -4.480003,-2.64 -7.36,-2.64 -3.999996,-0.04 -7.88,1.640004 -7.84,5.52 0.04,3.959996 3.840004,4.68 7.68,5.32 3.239997,0.519999 6.52,1.080003 6.44,3.92 -0.12,3.119997 -3.760003,3.76 -6.16,3.76 -2.639998,0 -5.600002,-1.000003 -7.24,-3.36 l -1.44,1.28 c 1.719998,2.639997 5.160003,3.96 8.64,3.96 3.479996,0 8,-1.160005 8.12,-5.52 0.2,-4.599996 -4.640004,-5.200001 -8.16,-5.8 -2.479998,-0.44 -5.92,-0.960003 -6,-3.6 -0.08,-2.519998 2.880003,-3.68 5.96,-3.64 2.199998,0 4.160002,0.320002 6.16,2.08 l 1.2,-1.28" font-family="Nexa Light" font-size="40" style="-inkscape-font-specification:Nexa Light"/><path id="path7133" d="m 60.181386,25.268521 0,5.76 -4.2,0 0,1.64 4.2,0 0,12.04 c 0,3.879996 1.360004,6.36 5.56,6.36 1.239999,0 2.480001,-0.400001 3.72,-1 l -0.68,-1.6 c -0.999999,0.479999 -2.080001,0.8 -3.04,0.8 -3.079997,0 -3.64,-1.880003 -3.64,-4.56 l 0,-12.04 6.72,0 0,-1.64 -6.72,0 0,-5.96 -1.92,0.2" font-family="Nexa Light" font-size="40" style="-inkscape-font-specification:Nexa Light"/><path id="path7135" d="m 82.282636,51.068521 c 3.159997,0 6.600002,-1.280003 8.52,-3.8 l -1.4,-1.12 c -1.479999,1.959998 -4.520003,3 -7.12,3 -4.079996,0 -7.640001,-2.680005 -8.04,-7.32 l 17.8,0 c 0.759999,-7.719992 -4.200006,-11.12 -9.76,-11.12 -5.559995,0 -10.04,4.280006 -10.04,10.2 0,6.279994 4.480005,10.16 10.04,10.16 m -8.04,-10.96 c 0.439999,-4.839995 3.960004,-7.6 8.04,-7.6 4.759995,0 7.96,2.720005 8,7.6 l -16.04,0" font-family="Nexa Light" font-size="40" style="-inkscape-font-specification:Nexa Light"/><path id="path7137" d="m 97.112636,31.028521 0,19.76 1.96,0 0,-11.52 c 0,-3.599997 2.840004,-6.56 6.520004,-6.6 1.15999,0 2.32,0.28 3.36,0.92 l 0.88,-1.6 c -1.32,-0.799999 -2.76001,-1.2 -4.24,-1.16 -2.52,0 -5.32001,1.040002 -6.560004,3.72 l -0.08,-3.52 -1.84,0" font-family="Nexa Light" font-size="40" style="-inkscape-font-specification:Nexa Light"/></g><g font-stretch="normal" style="line-height:125%;-inkscape-font-specification:Nexa" id="text7055" fill="#000" fill-opacity="1" stroke="none" font-family="Nexa" font-size="64" font-style="normal" font-variant="normal" font-weight="normal" letter-spacing="0" word-spacing="0"><path id="path7090" d="m -16.940621,60.594433 c -0.686,-0.643999 -1.568001,-0.924 -2.576,-0.924 -1.399999,-0.014 -2.758,0.574001 -2.744,1.932 0.014,1.385999 1.344001,1.638 2.688,1.862 1.133999,0.182 2.282,0.378001 2.254,1.372 -0.042,1.091999 -1.316001,1.316 -2.156,1.316 -0.923999,0 -1.960001,-0.350001 -2.534,-1.176 l -0.504,0.448 c 0.601999,0.923999 1.806001,1.386 3.024,1.386 1.217999,0 2.8,-0.406002 2.842,-1.932 0.07,-1.609998 -1.624001,-1.82 -2.856,-2.03 -0.867999,-0.154 -2.072,-0.336001 -2.1,-1.26 -0.028,-0.881999 1.008001,-1.288 2.086,-1.274 0.769999,0 1.456,0.112001 2.156,0.728 l 0.42,-0.448" font-family="Nexa Light" font-size="14" style="-inkscape-font-specification:Nexa Light"/><path id="path7092" d="m -14.447965,59.754433 0,6.944 -0.686,0 0,-6.944 0.686,0 m -0.882,-2.226 c 0,0.727999 1.106,0.727999 1.106,0 0,-0.727999 -1.106,-0.727999 -1.106,0" font-family="Nexa Light" font-size="14" style="-inkscape-font-specification:Nexa Light"/><path id="path7094" d="m -1.5476212,66.698433 0,-4.144 c 0,-1.721998 -1.2040017,-2.912 -2.898,-2.912 -1.063999,0 -2.1420005,0.574001 -2.562,1.708 -0.4059996,-1.231999 -1.5120011,-1.708 -2.562,-1.708 -0.8959988,0 -1.7780008,0.378001 -2.2539998,1.288 l -0.014,-1.148 -0.644,0 0,6.916 0.686,0 0,-4.102 c 0,-1.329999 0.896001,-2.296 2.2119998,-2.296 1.3159986,0 2.226,0.966001 2.226,2.296 l 0,4.102 0.686,0 0,-4.102 c 0,-1.329999 0.9100013,-2.31 2.226,-2.31 1.3159986,0 2.212,0.938001 2.212,2.268 l 0,4.144 0.686,0" font-family="Nexa Light" font-size="14" style="-inkscape-font-specification:Nexa Light"/><path id="path7096" d="m 3.7745663,66.166433 c -1.5819985,0 -2.80000005,-1.218002 -2.80000005,-2.912 0,-1.693998 1.19000165,-2.912 2.80000005,-2.912 1.5679984,0 2.828,0.952002 2.828,2.898 0,1.945998 -1.2600016,2.926 -2.828,2.926 m -2.85600005,3.416 0,-4.48 c 0.58799945,1.147999 1.68000115,1.722 2.85600005,1.722 1.945998,0 3.514,-1.260002 3.514,-3.584 0,-2.225998 -1.4840019,-3.486 -3.36,-3.556 -1.3439987,0 -2.4500006,0.686001 -2.99600005,1.736 l 0,-1.638 -0.672,0 0,9.8 0.658,0" font-family="Nexa Light" font-size="14" style="-inkscape-font-specification:Nexa Light"/><path id="path7098" d="m 8.9558788,56.898433 0,9.8 0.686,0 0,-9.8 -0.686,0" font-family="Nexa Light" font-size="14" style="-inkscape-font-specification:Nexa Light"/><path id="path7100" d="m 12.239535,59.754433 0,6.944 -0.686,0 0,-6.944 0.686,0 m -0.882,-2.226 c 0,0.727999 1.106,0.727999 1.106,0 0,-0.727999 -1.106,-0.727999 -1.106,0" font-family="Nexa Light" font-size="14" style="-inkscape-font-specification:Nexa Light"/><path id="path7102" d="m 15.591879,66.698433 0,-6.258 2.282,0 0,-0.602 -2.282,0 0,-0.616 c 0,-1.203999 0.504001,-1.736 1.372,-1.736 0.419999,0 0.686,0.126 1.064,0.35 l 0.336,-0.504 c -0.392,-0.294 -0.854001,-0.476 -1.372,-0.476 -1.525999,0 -2.072,0.994001 -2.072,2.366 l 0,0.616 -1.414,0 0,0.602 1.414,0 0,6.258 0.672,0" font-family="Nexa Light" font-size="14" style="-inkscape-font-specification:Nexa Light"/><path id="path7104" d="m 24.649223,59.782433 -1.736,4.074 -0.798,2.016 -0.812,-2.002 -1.61,-4.088 -0.742,0 2.772,6.832 -1.274,2.968 0.728,0 4.214,-9.8 -0.742,0" font-family="Nexa Light" font-size="14" style="-inkscape-font-specification:Nexa Light"/><path id="path7106" d="m 35.750785,59.782433 -1.736,4.074 -0.798,2.016 -0.812,-2.002 -1.61,-4.088 -0.742,0 2.772,6.832 -1.274,2.968 0.728,0 4.214,-9.8 -0.742,0" font-family="Nexa Light" font-size="14" style="-inkscape-font-specification:Nexa Light"/><path id="path7108" d="m 41.022879,66.796433 c 1.945998,0 3.514,-1.344002 3.514,-3.542 0,-2.197998 -1.568002,-3.598 -3.514,-3.598 -1.945998,0 -3.514,1.400002 -3.514,3.598 0,2.197998 1.568002,3.542 3.514,3.542 m 0,-0.672 c -1.567999,0 -2.842,-1.078002 -2.842,-2.87 0,-1.791998 1.274001,-2.954 2.842,-2.954 1.567998,0 2.842,1.162002 2.842,2.954 0,1.791998 -1.274002,2.87 -2.842,2.87" font-family="Nexa Light" font-size="14" style="-inkscape-font-specification:Nexa Light"/><path id="path7110" d="m 52.360035,66.698433 0,-6.93 -0.686,0 0,3.85 c 0,1.427998 -0.994001,2.506 -2.422,2.52 -1.497998,0.014 -2.464,-0.826002 -2.464,-2.394 l 0,-3.976 -0.686,0 0,3.99 c 0,1.917998 1.274002,3.052 3.122,3.052 0.965999,-0.014 1.932001,-0.406001 2.464,-1.358 l 0,1.246 0.672,0" font-family="Nexa Light" font-size="14" style="-inkscape-font-specification:Nexa Light"/><path id="path7112" d="m 54.155098,59.782433 0,6.916 0.686,0 0,-4.032 c 0,-1.259999 0.994001,-2.296 2.282,-2.31 0.405999,0 0.812,0.098 1.176,0.322 l 0.308,-0.56 c -0.462,-0.28 -0.966001,-0.42 -1.484,-0.406 -0.882,0 -1.862001,0.364001 -2.296,1.302 l -0.028,-1.232 -0.644,0" font-family="Nexa Light" font-size="14" style="-inkscape-font-specification:Nexa Light"/><path id="path7114" d="m 68.67266,60.594433 c -0.685999,-0.643999 -1.568001,-0.924 -2.576,-0.924 -1.399999,-0.014 -2.758,0.574001 -2.744,1.932 0.014,1.385999 1.344001,1.638 2.688,1.862 1.133999,0.182 2.282,0.378001 2.254,1.372 -0.042,1.091999 -1.316001,1.316 -2.156,1.316 -0.923999,0 -1.960001,-0.350001 -2.534,-1.176 l -0.504,0.448 c 0.601999,0.923999 1.806001,1.386 3.024,1.386 1.217999,0 2.8,-0.406002 2.842,-1.932 0.07,-1.609998 -1.624001,-1.82 -2.856,-2.03 -0.867999,-0.154 -2.072,-0.336001 -2.1,-1.26 -0.028,-0.881999 1.008001,-1.288 2.086,-1.274 0.769999,0 1.456001,0.112001 2.156,0.728 l 0.42,-0.448" font-family="Nexa Light" font-size="14" style="-inkscape-font-specification:Nexa Light"/><path id="path7116" d="m 73.601316,66.796433 c 1.105999,0 2.310001,-0.448001 2.982,-1.33 l -0.49,-0.392 c -0.517999,0.685999 -1.582001,1.05 -2.492,1.05 -1.427998,0 -2.674,-0.938002 -2.814,-2.562 l 6.23,0 c 0.266,-2.701997 -1.470002,-3.892 -3.416,-3.892 -1.945998,0 -3.514,1.498002 -3.514,3.57 0,2.197998 1.568002,3.556 3.514,3.556 m -2.814,-3.836 c 0.154,-1.693998 1.386002,-2.66 2.814,-2.66 1.665999,0 2.786,0.952002 2.8,2.66 l -5.614,0" font-family="Nexa Light" font-size="14" style="-inkscape-font-specification:Nexa Light"/><path id="path7118" d="m 78.791816,59.782433 0,6.916 0.686,0 0,-4.032 c 0,-1.259999 0.994002,-2.296 2.282,-2.31 0.406,0 0.812001,0.098 1.176,0.322 l 0.308,-0.56 c -0.461999,-0.28 -0.966,-0.42 -1.484,-0.406 -0.881999,0 -1.862,0.364001 -2.296,1.302 l -0.028,-1.232 -0.644,0" font-family="Nexa Light" font-size="14" style="-inkscape-font-specification:Nexa Light"/><path id="path7120" d="m 86.96541,66.698433 0.756,0 2.898,-6.916 -0.756,0 -2.52,6.118 -2.52,-6.118 -0.756,0 2.898,6.916" font-family="Nexa Light" font-size="14" style="-inkscape-font-specification:Nexa Light"/><path id="path7122" d="m 94.874754,66.796433 c 1.105999,0 2.31,-0.448001 2.982,-1.33 l -0.49,-0.392 c -0.518,0.685999 -1.582001,1.05 -2.492,1.05 -1.427999,0 -2.674,-0.938002 -2.814,-2.562 l 6.23,0 c 0.265999,-2.701997 -1.470002,-3.892 -3.416,-3.892 -1.945998,0 -3.514,1.498002 -3.514,3.57 0,2.197998 1.568002,3.556 3.514,3.556 m -2.814,-3.836 c 0.154,-1.693998 1.386001,-2.66 2.814,-2.66 1.665998,0 2.786,0.952002 2.8,2.66 l -5.614,0" font-family="Nexa Light" font-size="14" style="-inkscape-font-specification:Nexa Light"/><path id="path7124" d="m 100.06525,59.782433 0,6.916 0.686,0 0,-4.032 c 0,-1.259999 0.99401,-2.296 2.282,-2.31 0.406,0 0.812,0.098 1.176,0.322 l 0.308,-0.56 c -0.462,-0.28 -0.966,-0.42 -1.484,-0.406 -0.882,0 -1.862,0.364001 -2.296,1.302 l -0.028,-1.232 -0.644,0" font-family="Nexa Light" font-size="14" style="-inkscape-font-specification:Nexa Light"/></g><g id="g7079" transform="translate(-320,0)"><path id="path7063" fill="#000" fill-opacity="1" stroke="#000" stroke-dasharray="none" stroke-dashoffset="0" stroke-linecap="round" stroke-miterlimit="4" stroke-opacity="1" stroke-width="2" d="m -46.206136,48.227581 c -4.77736,0 -8.65017,-3.531079 -8.65017,-7.886879 0,-4.355806 3.87281,-7.88688 8.65017,-7.88688 4.77735,0 8.650154,3.531074 8.650154,7.88688 0,4.3558 -3.872804,7.886879 -8.650154,7.886879 z"/><path id="path7065" fill="#000" fill-opacity="1" stroke="#000" stroke-dasharray="none" stroke-linecap="butt" stroke-linejoin="miter" stroke-miterlimit="4" stroke-opacity="1" stroke-width="2" d="m -46.13042,70.773991 0,-63.166484"/><text id="text7067" x="-141.286" y="50.361" fill="#000" fill-opacity="1" stroke="none" font-family="Nexa" font-size="64" font-stretch="normal" font-style="normal" font-variant="normal" font-weight="normal" letter-spacing="0" word-spacing="0" xml:space="preserve" style="line-height:125%;-inkscape-font-specification:Nexa"><tspan style="-inkscape-font-specification:Nexa Bold" id="tspan7069" x="-141.286" y="50.361" font-family="Nexa Bold" font-size="40">http</tspan></text><text font-stretch="normal" style="line-height:125%;-inkscape-font-specification:Nexa" id="text7071" x="-25.634" y="50.789" fill="#000" fill-opacity="1" stroke="none" font-family="Nexa" font-size="64" font-style="normal" font-variant="normal" font-weight="normal" letter-spacing="0" word-spacing="0" xml:space="preserve"><tspan id="tspan7073" x="-25.634" y="50.789" font-family="Nexa Light" font-size="40" style="-inkscape-font-specification:Nexa Light">master</tspan></text><text id="text7075" x="-24.372" y="68.719" fill="#000" fill-opacity="1" stroke="none" font-family="Nexa" font-size="64" font-stretch="normal" font-style="normal" font-variant="normal" font-weight="normal" letter-spacing="0" word-spacing="0" xml:space="preserve" style="line-height:125%;-inkscape-font-specification:Nexa"><tspan style="-inkscape-font-specification:Nexa Light" id="tspan7077" x="-24.372" y="68.719" font-family="Nexa Light" font-size="14">simplify your server</tspan></text></g></g></svg>